<?xml version="1.0" encoding="UTF-8"?>
<svg width="203px" height="316px" viewBox="0 0 203 316" version="1.1" xmlns="http://www.w3.org/2000/svg" xmlns:xlink="http://www.w3.org/1999/xlink">
    <!-- Generator: Sketch 54 (76480) - https://sketchapp.com -->
    <title>Home-CreditCard</title>
    <desc>Created with Sketch.</desc>
    <g id="Desktop" stroke="none" stroke-width="1" fill="none" fill-rule="evenodd">
        <g id="1.0-Homepage" transform="translate(-493.000000, -2848.000000)">
            <g id="Home-CreditCard" transform="translate(425.000000, 2835.000000)">
                <g id="Credit-Card-1" transform="translate(68.632075, -10.994413)">
                    <g id="Group" transform="translate(153.342399, 51.508503) rotate(-22.000000) translate(-153.342399, -51.508503) translate(116.738625, 11.195654)" stroke-linecap="round" stroke-width="2.17">
                        <path d="M5.80168327,0 L0,26.8652385" id="Shape" stroke="#264056"></path>
                        <path d="M22.6704658,6.41340782 L10.9811321,31.283285" id="Shape" stroke="#E6093D"></path>
                        <path d="M37.281776,15.575419 L21.0471698,37.7402937" id="Shape" stroke="#FAC05C"></path>
                        <path d="M51.5913075,27.4860335 L31.1132075,45.7921653" id="Shape" stroke="#2DBCB4"></path>
                        <path d="M62.5346804,42.1452514 L38.4339623,55.3069971" id="Shape" stroke="#264056"></path>
                        <path d="M69.2639912,59.5530726 L43.009434,67.5850011" id="Shape" stroke="#E6093D"></path>
                        <path d="M73.0567063,76.9608939 L45.754717,79.8382634" id="Shape" stroke="#FAC05C"></path>
                    </g>
                    <path d="M11.6716123,248.596512 C6.644204,251.358233 0,256.622028 0,259.572585 C0,260.55217 0.719887112,261.142282 1.69940564,261.508151 C2.98450771,261.894 4.32357023,262.069365 5.66468547,262.027449 C6.26785841,262.030108 6.87069748,261.998585 7.47030396,261.933031 C9.15654661,261.756154 10.8258957,261.444363 12.462308,261.000655 C13.9138837,260.634786 15.4480693,260.162696 17.0294607,259.619794 C19.7201863,258.711022 22.552529,257.566206 25.420276,256.303367 C28.2880231,255.040529 31.3209901,253.529844 34.2359428,252.019158 C36.8912641,250.614693 39.4639754,249.163019 41.8596653,247.723147 L44.0311281,246.389495 C47.5855107,244.261323 50.9148251,241.778007 53.9679305,238.977695 C55.1480733,237.797472 55.8207547,236.794282 55.8207547,236.086149 C55.8207547,234.386628 53.5548805,233.631285 51.8082692,233.631285 L51.1355878,233.631285 L51.0411764,233.631285" id="Shape" stroke="#264056" stroke-width="1.25" fill="#FAC05C" fill-rule="nonzero" stroke-linecap="round"></path>
                    <path d="M152.130864,129.184358 C153.854273,129.184358 155.566038,129.644516 155.566038,131.367161 C155.566038,140.310754 126.652352,152.345669 107.066038,168.581006 C112.24791,157.289424 116.637946,148.522814 120.329303,141.596838 C130.506734,135.909751 144.585125,129.184358 152.130864,129.184358 Z" id="Shape" fill="#FFFFFF" fill-rule="nonzero"></path>
                    <path d="M120.329303,141.596838 C130.506734,135.909751 144.585125,129.184358 152.130864,129.184358 C153.854273,129.184358 155.566038,129.644516 155.566038,131.367161 C155.566038,140.310754 126.652352,152.345669 107.066038,168.581006" id="Shape" stroke="#1E3244" stroke-width="1.25" stroke-linecap="round"></path>
                    <path d="M77.7830189,138.641161 C77.7709326,141.006011 77.5232158,143.363324 77.0437696,145.675978 C73.63185,144.644205 69.9014845,143.436561 65.8867925,141.924075 L65.9664039,141.677857 C66.6374148,139.098424 67.7406021,126.435754 72.1306054,126.435754 C74.8601411,126.435754 77.7830189,132.954684 77.7830189,138.641161 Z" id="Shape" fill="#FFFFFF" fill-rule="nonzero"></path>
                    <path d="M65.8867925,141.677857 C66.5603792,139.098424 67.6678014,126.435754 72.0746569,126.435754 C74.8146706,126.435754 77.7830189,132.954684 77.7830189,138.641161 C77.7708862,141.006011 77.5222185,143.363324 77.0409318,145.675978" id="Shape" stroke="#1E3244" stroke-width="1.25" stroke-linecap="round"></path>
                    <path d="M66.8746869,76.9533224 L159.142774,76.9715004 C161.207787,76.9718767 162.881717,78.6458066 162.882093,80.7108195 L162.894296,132.782219 C162.894672,134.847764 161.220522,136.522524 159.154977,136.5229 C159.154523,136.5229 159.154069,136.5229 159.153615,136.5229 L66.8855276,136.50336 C64.8205147,136.502984 63.1465852,134.829054 63.1462093,132.764041 L63.1340057,80.692641 C63.1336297,78.627096 64.8077799,76.9523362 66.8733248,76.9519602 C66.8737789,76.9519601 66.8742331,76.9519601 66.8746872,76.9519602 Z" id="Rectangle-path" fill="#1E4058" fill-rule="nonzero" transform="translate(113.014151, 106.737430) rotate(8.770000) translate(-113.014151, -106.737430) "></path>
                    <polygon id="Shape" fill="#FFFFFF" fill-rule="nonzero" points="73.2758378 111.406258 73.2758378 111.406258 72.2924528 111.714823 72.2924528 111.22824 73.521684 110.860335 74.1226415 110.931543 73.303154 115.441341 72.6202478 115.358266"></polygon>
                    <path d="M75.0377358,115.94126 L75.0377358,115.592483 L75.6520404,115.221204 C77.1477384,114.354887 77.8288152,113.882351 77.9623597,113.229801 C78.0310508,113.002995 77.974604,112.762185 77.8087323,112.574404 C77.6428605,112.386624 77.3852738,112.271921 77.1076751,112.262226 C76.7057321,112.226658 76.301261,112.305905 75.9591927,112.487243 L75.8256482,112.048459 C76.2775162,111.816943 76.8127417,111.729153 77.3347007,111.80094 C77.7523311,111.820212 78.1394638,111.991273 78.3957158,112.269767 C78.6519678,112.548262 78.752099,112.90676 78.6701454,113.252302 C78.5232465,114.039863 77.7219797,114.591156 76.4933706,115.311211 L76.0259649,115.581232 L76.0259649,115.581232 L78.3095753,115.885005 L78.2160942,116.357542 L75.0377358,115.94126 Z" id="Shape" fill="#FFFFFF" fill-rule="nonzero"></path>
                    <path d="M78.910197,115.408312 C79.1434756,115.635516 79.4264617,115.784467 79.7282343,115.838889 C79.9429409,115.934018 80.1837036,115.909913 80.3809539,115.773539 C80.5782041,115.637166 80.7099624,115.40372 80.738157,115.140656 C80.8189508,114.523884 80.3745849,114.174768 79.8696235,114.08167 L79.5767459,114.08167 L79.6373413,113.639456 L79.9302189,113.639456 C80.3038903,113.709279 80.8189508,113.569633 80.9401416,113.045958 C80.9401416,112.696841 80.8391493,112.347725 80.3543864,112.266265 C80.0780285,112.224493 79.7971081,112.277095 79.5464483,112.417548 L79.4757537,111.95206 C79.7933088,111.793029 80.1433891,111.740588 80.4856764,111.800776 C81.2330191,111.928785 81.495599,112.510646 81.4350037,113.045958 C81.3494696,113.528334 81.009749,113.896489 80.5866686,113.965298 L80.5866686,113.965298 C81.0647891,114.137197 81.3613421,114.686912 81.2835153,115.257029 C81.1926222,115.966899 80.6270655,116.490573 79.7080359,116.327652 C79.3397743,116.278422 78.9903748,116.113352 78.6981132,115.850527 L78.910197,115.408312 Z" id="Shape" fill="#FFFFFF" fill-rule="nonzero"></path>
                    <path d="M84.420675,117.1788 L84.6268934,115.992011 L82.3584906,115.65971 L82.4229338,115.256202 L85.1037736,112.692737 L85.8126495,112.799548 L85.3357693,115.600371 L86.0188679,115.707182 L85.941536,116.181897 L85.2584374,116.086954 L85.0393303,117.273743 L84.420675,117.1788 Z M84.7042254,115.469824 L84.9619984,113.962602 C84.9619984,113.725244 85.052219,113.487886 85.1037736,113.262396 L85.1037736,113.262396 C84.9396157,113.47278 84.7632128,113.67483 84.5753388,113.867659 L83.1318097,115.220598 L83.1318097,115.220598 L84.7042254,115.469824 Z" id="Shape" fill="#FFFFFF" fill-rule="nonzero"></path>
                    <path d="M93.3396226,114.367726 L91.437276,114.099232 L91.043687,115.266596 C91.1790302,115.256739 91.3150524,115.256739 91.4503956,115.266596 C91.8263969,115.31667 92.1825381,115.449041 92.4868466,115.651827 C92.8979726,115.955685 93.0934647,116.432921 92.9985122,116.900907 C92.91381,117.322558 92.6384928,117.694859 92.2368115,117.930926 C91.8351302,118.166993 91.3422275,118.246173 90.8731318,118.149987 C90.4373919,118.100961 90.0247691,117.947648 89.6792453,117.706389 L89.9285183,117.274464 C90.2271735,117.480506 90.5789228,117.616934 90.9518496,117.671368 C91.5639692,117.770685 92.1509108,117.410332 92.2638128,116.865886 C92.3556502,116.293877 92.0014202,115.826932 90.9518496,115.698521 C90.720339,115.684456 90.4880197,115.684456 90.2565091,115.698521 L90.9518496,113.608939 L93.3396226,113.947474 L93.3396226,114.367726 Z" id="Shape" fill="#FFFFFF" fill-rule="nonzero"></path>
                    <path d="M96.0118246,115.043462 C95.8767133,115.022591 95.7397698,115.022591 95.6046585,115.043462 C94.8892892,115.039888 94.2567585,115.575116 94.0490754,116.359749 L94.0490754,116.359749 C94.4507607,115.978227 95.0185558,115.928058 95.4665126,116.234507 C95.9144694,116.540957 96.145456,117.137576 96.043145,117.723902 C96.0072958,118.143025 95.8224678,118.526741 95.5321217,118.784821 C95.2417755,119.042902 94.871529,119.152575 94.5084423,119.088054 C93.6627897,118.932493 93.2138631,118.082889 93.3704654,116.89823 C93.4521305,116.137203 93.793793,115.444363 94.3205195,114.971664 C94.7208704,114.654122 95.2020484,114.498351 95.6881798,114.528913 L96.0849057,114.528913 L96.0118246,115.043462 Z M95.500257,117.640138 C95.5660476,117.376981 95.5290816,117.094058 95.3989191,116.864537 C95.2687565,116.635015 95.0581797,116.481434 94.8216469,116.443513 C94.4939962,116.3941 94.1691496,116.554984 93.9759944,116.862332 C93.9262974,116.939915 93.8940275,117.030328 93.882033,117.125589 C93.7880716,117.879463 94.017755,118.489742 94.5710832,118.585472 C95.1244114,118.681202 95.4062956,118.286315 95.500257,117.640138 Z" id="Shape" fill="#FFFFFF" fill-rule="nonzero"></path>
                    <polygon id="Shape" fill="#FFFFFF" fill-rule="nonzero" points="100.660377 114.926568 100.58166 115.327996 97.6953405 119.106145 97 119.011692 99.8600798 115.35161 99.8600798 115.35161 97.4198282 115.032828 97.5116657 114.52514"></polygon>
                    <path d="M100.676395,118.613389 C100.774474,118.078138 101.259272,117.661903 101.87102,117.587717 L101.87102,117.587717 C101.420318,117.347252 101.177305,116.893351 101.254016,116.435276 C101.335018,116.102145 101.56666,115.812175 101.895846,115.631834 C102.225031,115.451492 102.623532,115.396243 103.000005,115.478751 C103.374702,115.476754 103.732513,115.615412 103.983314,115.859802 C104.234116,116.104191 104.354003,116.431017 104.312779,116.75796 C104.216196,117.208678 103.824374,117.566224 103.315071,117.668388 L103.315071,117.668388 C103.871751,117.890404 104.200889,118.403038 104.128991,118.936073 C104.042711,119.304821 103.78617,119.625674 103.420451,119.822237 C103.054732,120.0188 102.612558,120.073484 102.199213,119.973269 C101.096483,119.892599 100.558246,119.258756 100.676395,118.613389 Z M103.367582,118.959122 C103.459476,118.428999 103.078772,118.11784 102.435512,117.806681 C101.915855,117.811113 101.473995,118.140823 101.385293,118.590341 C101.327755,119.052087 101.685581,119.474653 102.205837,119.559342 C102.726092,119.644031 103.232711,119.362182 103.367582,118.913024 L103.367582,118.959122 Z M101.897275,116.515947 C101.818509,116.953875 102.15983,117.241985 102.711195,117.449424 C103.149646,117.426017 103.515652,117.147238 103.603881,116.769484 C103.654426,116.574718 103.604852,116.370293 103.468323,116.210488 C103.331795,116.050682 103.122124,115.951665 102.894983,115.939727 C102.674616,115.888338 102.439745,115.921851 102.249262,116.031864 C102.058779,116.141876 101.930749,116.317954 101.897275,116.515947 Z" id="Shape" fill="#FFFFFF" fill-rule="nonzero"></path>
                    <path d="M108.90915,120.384207 C108.990174,119.849762 109.377921,119.432592 109.870079,119.350362 L109.870079,119.350362 C109.526465,119.119732 109.333822,118.696143 109.373775,118.25908 C109.438374,117.924874 109.626762,117.634417 109.894542,117.456159 C110.162321,117.2779 110.485808,117.227607 110.788769,117.317132 C111.24154,117.41818 111.581284,117.827806 111.627275,118.328111 C111.673265,118.828415 111.414813,119.303115 110.989402,119.499695 L110.989402,119.499695 C111.432375,119.731489 111.691143,120.243724 111.633541,120.774771 C111.561327,121.140594 111.354426,121.458226 111.061088,121.653596 C110.767749,121.848966 110.413616,121.904995 110.081272,121.808617 C109.247059,121.670771 108.814113,121.016002 108.90915,120.384207 Z M111.073879,120.728823 C111.147797,120.200413 110.852127,119.878772 110.324144,119.580105 C109.909467,119.583499 109.555218,119.906242 109.479372,120.349746 C109.436337,120.578783 109.485717,120.816898 109.614978,121.003652 C109.744239,121.190406 109.940953,121.307843 110.155189,121.326156 C110.350052,121.385008 110.55857,121.354439 110.732159,121.241571 C110.905749,121.128703 111.029247,120.943394 111.073879,120.728823 L111.073879,120.728823 Z M109.891198,118.293542 C109.82784,118.730054 110.102391,119.017234 110.545897,119.224003 C110.901449,119.192985 111.196904,118.913501 111.274513,118.534772 C111.308007,118.339737 111.263925,118.138397 111.153207,117.980727 C111.042489,117.823056 110.875517,117.723837 110.693732,117.707696 C110.514882,117.65649 110.324428,117.691381 110.170859,117.803485 C110.017291,117.915589 109.915426,118.09409 109.891198,118.293542 L109.891198,118.293542 Z" id="Shape" fill="#FFFFFF" fill-rule="nonzero"></path>
                    <polygon id="Shape" fill="#FFFFFF" fill-rule="nonzero" points="116.216981 117.675171 116.151147 118.0766 113.254446 121.854749 112.556604 121.760295 115.413805 118.088406 115.413805 118.088406 112.925275 117.781432 113.004276 117.273743"></polygon>
                    <path d="M118.005857,118.703232 C117.871875,118.688985 117.737044,118.688985 117.603061,118.703232 C116.86825,118.691152 116.21711,119.248666 116.012533,120.065064 L116.012533,120.065064 C116.399819,119.647299 116.977158,119.56988 117.436809,119.874072 C117.896461,120.178264 118.131315,120.793184 118.016185,121.391058 C117.980721,121.809468 117.797877,122.192531 117.510647,122.450172 C117.223417,122.707814 116.857144,122.817301 116.497954,122.752889 C116.084258,122.663085 115.723864,122.372016 115.508467,121.95374 C115.29307,121.535464 115.243434,121.030306 115.37219,120.566791 C115.452979,119.807059 115.790975,119.115398 116.312048,118.643503 C116.704233,118.326555 117.176999,118.170922 117.654702,118.201505 C117.785185,118.186091 117.916687,118.186091 118.04717,118.201505 L118.005857,118.703232 Z M117.49978,121.295491 C117.564865,121.032782 117.528295,120.75034 117.39953,120.521209 C117.270764,120.292078 117.062448,120.138758 116.828453,120.100901 C116.504319,120.051573 116.182959,120.212183 115.991877,120.519008 C115.943333,120.59823 115.908281,120.687423 115.888596,120.781817 C115.805971,121.534408 116.022861,122.143649 116.580579,122.239216 C117.138296,122.334783 117.375843,121.940569 117.49978,121.295491 Z" id="Shape" fill="#FFFFFF" fill-rule="nonzero"></path>
                    <path d="M122.622642,118.962449 L120.720295,118.669834 L120.326706,119.840296 C120.461775,119.825596 120.598346,119.825596 120.733414,119.840296 C121.111985,119.882082 121.470465,120.015676 121.769865,120.226549 C122.181146,120.525999 122.377199,121.001388 122.281531,121.46724 C122.199973,121.892158 121.925965,122.268394 121.523901,122.507527 C121.121837,122.74666 120.62717,122.827605 120.156151,122.731339 C119.719094,122.678771 119.306351,122.52096 118.962264,122.274859 L119.211537,121.841788 C119.506808,122.053418 119.860105,122.19081 120.234868,122.239745 C120.527351,122.291077 120.830695,122.235805 121.077193,122.086265 C121.32369,121.936725 121.49282,121.705367 121.546832,121.44383 C121.638669,120.870304 121.284439,120.390414 120.234868,120.273368 C119.946237,120.273368 119.723203,120.273368 119.526408,120.273368 L120.234868,118.189944 L122.609522,118.517674 L122.622642,118.962449 Z" id="Shape" fill="#FFFFFF" fill-rule="nonzero"></path>
                    <path d="M129.297254,124.520061 L129.507168,123.330189 L127.198113,122.997025 L127.198113,122.592469 L129.926997,120.022346 L130.648576,120.129435 L130.16315,122.937532 L130.858491,123.032721 L130.779773,123.520569 L130.084432,123.41348 L129.874518,124.603352 L129.297254,124.520061 Z M129.599006,122.806646 L129.861399,121.295509 C129.861399,121.069433 129.940116,120.831459 130.005714,120.593485 L130.005714,120.593485 L129.480929,121.200319 L127.985291,122.568672 L127.985291,122.568672 L129.599006,122.806646 Z" id="Shape" fill="#FFFFFF" fill-rule="nonzero"></path>
                    <path d="M130.175534,123.626471 C130.404702,123.852072 130.684327,124.00005 130.98297,124.05377 C131.19764,124.139029 131.434299,124.110994 131.629151,123.977221 C131.824003,123.843448 131.956991,123.617708 131.992266,123.360853 C132.062916,122.748777 131.618826,122.402318 131.114179,122.309929 L130.831576,122.309929 L130.892134,121.871082 L131.174736,121.871082 C131.558269,121.940374 132.062916,121.80179 132.133567,121.282103 C132.204218,120.762415 132.032637,120.589186 131.558269,120.496797 C131.281213,120.463485 131.001536,120.519487 130.750832,120.658478 L130.670089,120.196533 C130.987447,120.038713 131.337309,119.986671 131.679384,120.046401 C132.436355,120.173436 132.688679,120.750867 132.688679,121.282103 C132.601933,121.764385 132.257483,122.130693 131.830778,122.194443 L131.830778,122.194443 C132.312643,122.360455 132.614009,122.907259 132.537285,123.476339 C132.465053,123.867755 132.251924,124.206176 131.950277,124.408431 C131.648629,124.610686 131.28643,124.658024 130.952691,124.538811 C130.584659,124.489955 130.235476,124.326143 129.943396,124.065318 L130.175534,123.626471 Z" id="Shape" fill="#FFFFFF" fill-rule="nonzero"></path>
                    <path d="M133.603774,125.092744 L133.603774,124.744558 L134.229605,124.373908 C135.707631,123.509059 136.40004,123.037322 136.51988,122.397109 C136.592731,122.170962 136.540356,121.929155 136.37741,121.739347 C136.214464,121.54954 135.958448,121.432119 135.681,121.419941 C135.280099,121.382641 134.876112,121.461889 134.535862,121.644578 L134.389391,121.206537 C134.847681,120.98171 135.382804,120.894602 135.907365,120.959437 C136.322053,120.982289 136.705236,121.153986 136.959843,121.431031 C137.21445,121.708077 137.316056,122.063893 137.23892,122.408341 C137.092449,123.194568 136.293516,123.744927 135.068485,124.474994 L134.60244,124.733326 L134.60244,124.733326 L136.8794,125.036585 L136.786191,125.519553 L133.603774,125.092744 Z" id="Shape" fill="#FFFFFF" fill-rule="nonzero"></path>
                    <polygon id="Shape" fill="#FFFFFF" fill-rule="nonzero" points="139.170024 122.411098 139.170024 122.411098 138.179245 122.707029 138.179245 122.221703 139.417719 121.854749 140.009434 121.937609 139.197546 126.435754 138.509505 126.341056"></polygon>
                    <polygon id="Shape" fill="#FFFFFF" fill-rule="nonzero" points="72.3628447 120.462983 72.3628447 120.462983 71.3773585 120.699422 71.3773585 120.323269 72.6131269 120.022346 73.2075472 120.08683 72.3315594 123.687151 71.658926 123.61192"></polygon>
                    <polygon id="Shape" fill="#FFFFFF" fill-rule="nonzero" points="75.1081277 120.476393 75.1081277 120.476393 74.1226415 120.714227 74.1226415 120.325044 75.3584099 120.022346 75.9528302 120.098021 75.139413 123.687151 74.4511369 123.622287"></polygon>
                    <polygon id="Shape" fill="#FFFFFF" fill-rule="nonzero" points="75.9528302 124.525927 78.2892413 120.022346 78.6981132 120.099772 76.3617021 124.603352"></polygon>
                    <path d="M78.6981132,125.096174 L78.6981132,124.736943 L79.1674591,124.377712 C80.3122051,123.505295 80.8044459,123.030597 80.8960256,122.389113 C80.9482312,122.163091 80.906088,121.922729 80.7814529,121.735652 C80.6568178,121.548575 80.4631611,121.435002 80.2549678,121.426888 C79.9546425,121.380271 79.6494467,121.457801 79.3964083,121.644992 L79.2933811,121.208783 C79.6365167,120.976255 80.0428087,120.889739 80.4381272,120.96502 C80.740583,121.006632 81.0157529,121.181679 81.202688,121.451388 C81.389623,121.721098 81.4728938,122.063208 81.4340562,122.401943 C81.3195816,123.197382 80.7243137,123.68491 79.7970694,124.46752 L79.4536456,124.736943 L79.4536456,124.736943 L81.1593172,125.032026 L81.0906324,125.519553 L78.6981132,125.096174 Z" id="Shape" fill="#FFFFFF" fill-rule="nonzero"></path>
                    <path d="M81.4433962,125.083229 L81.4433962,124.749569 L81.9029591,124.37741 C83.0518662,123.504762 83.5458962,123.094104 83.6492979,122.388285 C83.7016933,122.162203 83.6593969,121.921777 83.5343088,121.734651 C83.4092206,121.547525 83.21486,121.433922 83.0059099,121.425805 C82.704493,121.379176 82.3981878,121.456727 82.1442296,121.643967 L82.0293389,121.207643 C82.3744532,120.977195 82.781513,120.890806 83.178246,120.963815 C83.4840748,121.005291 83.7621781,121.182222 83.950119,121.454885 C84.1380599,121.727548 84.2200909,122.073096 84.1777952,122.413951 C84.0629044,123.196768 83.4654727,123.697258 82.534858,124.467242 L82.1786968,124.736736 L82.1786968,124.736736 L83.9020574,125.031897 L83.833123,125.519553 L81.4433962,125.083229 Z" id="Shape" fill="#FFFFFF" fill-rule="nonzero"></path>
                    <polygon id="Shape" fill="#FFFFFF" fill-rule="nonzero" points="92.4710585 123.214186 92.4710585 123.214186 91.509434 123.45202 91.509434 123.073647 92.7347298 122.77095 93.3396226 122.835814 92.5175887 126.435754 91.8506556 126.36008"></polygon>
                    <polygon id="Shape" fill="#FFFFFF" fill-rule="nonzero" points="96.1552975 124.130387 96.1552975 124.130387 95.1698113 124.368221 95.1698113 123.989849 96.4055797 123.687151 97 123.752015 96.1552975 127.351955 95.4826641 127.276281"></polygon>
                    <polygon id="Shape" fill="#FFFFFF" fill-rule="nonzero" points="97 128.216539 99.3465905 123.687151 99.745283 123.764576 97.4670398 128.268156"></polygon>
                    <path d="M98.8301887,127.857294 L98.8301887,127.497789 L99.2992774,127.138285 C100.443396,126.265202 100.935368,125.854339 101.026897,125.148169 C101.083207,124.920205 101.043064,124.675847 100.918019,124.485403 C100.792974,124.294958 100.596892,124.179545 100.38619,124.172371 C100.086724,124.140334 99.7859903,124.216831 99.5281012,124.390642 L99.4251305,123.9541 C99.7701863,123.727639 100.174227,123.64149 100.569249,123.710151 C100.873804,123.751648 101.150748,123.928667 101.337906,124.201465 C101.525063,124.474264 101.606752,124.819984 101.564633,125.161009 C101.461662,125.957055 100.855279,126.444954 99.9285429,127.228161 L99.5853072,127.48495 L99.5853072,127.48495 L101.290044,127.793097 L101.221397,128.268156 L98.8301887,127.857294 Z" id="Shape" fill="#FFFFFF" fill-rule="nonzero"></path>
                    <path d="M104.070504,128.192926 L104.227378,127.214928 L102.490566,126.956995 L102.490566,126.634578 L104.529919,124.603352 L105.078976,124.68933 L104.709203,126.914006 L105.235849,126.989236 L105.168618,127.365389 L104.653177,127.290159 L104.485098,128.268156 L104.070504,128.192926 Z M104.294609,126.838775 L104.485098,125.645833 C104.485098,125.452383 104.55233,125.26968 104.597151,125.086977 L104.597151,125.086977 L104.204967,125.559855 L103.084444,126.634578 L103.084444,126.634578 L104.294609,126.838775 Z" id="Shape" fill="#FFFFFF" fill-rule="nonzero"></path>
                    <ellipse id="Oval" fill="#FFFFFF" fill-rule="nonzero" cx="142.29717" cy="94.8268156" rx="5.94811321" ry="5.95530726"></ellipse>
                    <ellipse id="Oval" fill="#FFFFFF" fill-rule="nonzero" opacity="0.5" cx="150.533019" cy="96.6592179" rx="5.94811321" ry="5.95530726"></ellipse>
                    <path d="M79.42854,87.8952811 C79.0805791,87.975316 78.7220901,87.975316 78.3741291,87.8952811 C77.9100092,87.861125 77.4815285,87.5999425 77.1990114,87.1789825 C76.9164943,86.7580225 76.8075471,86.2184194 76.9002215,85.6991092 C77.0000178,84.810113 77.4858244,84.0380618 78.1927251,83.6450426 C78.6615103,83.3887814 79.1903631,83.311758 79.700646,83.4254254 C79.9979643,83.4601458 80.2827121,83.5801487 80.5283019,83.7742291 L80.1995071,84.5105927 C79.988989,84.3617038 79.7533649,84.2648753 79.5079043,84.2263822 C79.1840431,84.1700114 78.85293,84.238195 78.5668709,84.4201621 C78.1656052,84.7053739 77.8957668,85.1783955 77.8299171,85.7120279 C77.7539518,86.0294767 77.8084967,86.3690537 77.9782133,86.6352672 C78.14793,86.9014806 78.414486,87.065575 78.7029239,87.0814057 C78.9573215,87.1402149 79.2194934,87.1402149 79.473891,87.0814057 L79.42854,87.8952811 Z" id="Shape" fill="#FFFFFF" fill-rule="nonzero"></path>
                    <path d="M81.8437591,83.3816406 C82.1944766,83.3603424 82.5462168,83.385441 82.8916657,83.4564145 C83.2469403,83.4958382 83.5859903,83.6422796 83.8726847,83.8801329 C84.1167231,84.1025577 84.2322418,84.456493 84.1736791,84.8023436 C84.0955384,85.3850203 83.6630521,85.8269081 83.1369205,85.8616397 L83.1369205,85.8616397 C83.3487314,86.0111874 83.415619,86.3102828 83.3933231,86.7090766 C83.3615044,87.1237254 83.3615044,87.5406585 83.3933231,87.9553073 L82.5460795,87.8057596 C82.5289315,87.4612355 82.5289315,87.1159121 82.5460795,86.7713881 C82.5460795,86.2355089 82.445748,86.0485743 82.1224577,85.9987251 L81.866055,85.9987251 L81.3421017,87.6437496 L80.5283019,87.5066642 L81.8437591,83.3816406 Z M82.0890139,85.3008359 L82.4346001,85.3631474 C82.6197229,85.4232134 82.8188735,85.3941276 82.9839792,85.2829112 C83.1490848,85.1716948 83.2651434,84.9884533 83.3041396,84.777419 C83.3041396,84.4409367 83.1146246,84.2415398 82.7801863,84.1792283 C82.6729222,84.1628274 82.5641601,84.1628274 82.456896,84.1792283 L82.0890139,85.3008359 Z" id="Shape" fill="#FFFFFF" fill-rule="nonzero"></path>
                    <polygon id="Shape" fill="#FFFFFF" fill-rule="nonzero" points="86.0753552 87.0664926 84.6744701 86.8299733 84.3468437 87.8382924 85.9058933 88.1121569 85.6573492 88.8715084 83.2735849 88.4607117 84.6744701 84.2905028 86.9339623 84.6888511 86.6854181 85.4482026 85.2054507 85.1867865 84.9117167 86.0830702 86.3013044 86.3195895"></polygon>
                    <path d="M88.3854068,85.207297 C88.8011051,85.2016535 89.2164071,85.2362941 89.6259578,85.3107722 C90.1919997,85.3582693 90.7216716,85.6205898 91.1146189,86.0480329 C91.4464954,86.4603477 91.5790475,87.008395 91.4743786,87.5354886 C91.3722937,88.3413631 90.9128423,89.0503414 90.2338277,89.4497794 C89.5676279,89.7894463 88.8087001,89.8763503 88.0876746,89.6955329 C87.6960701,89.6412451 87.3099433,89.550338 86.9339623,89.4239106 L88.3854068,85.207297 Z M88.0876746,88.8806659 C88.2173153,88.9224608 88.350114,88.952749 88.4846509,88.9712067 C88.9236308,89.0579883 89.3770351,88.9398047 89.7252018,88.6478468 C90.090031,88.3161402 90.3242326,87.8554111 90.3826938,87.354407 C90.4496788,87.0444424 90.3798529,86.7194937 90.1924262,86.4689587 C90.0049995,86.2184236 89.7197171,86.0686957 89.4150641,86.0609673 L89.0180878,86.0609673 L88.0876746,88.8806659 Z" id="Shape" fill="#FFFFFF" fill-rule="nonzero"></path>
                    <polygon id="Shape" fill="#FFFFFF" fill-rule="nonzero" points="92.4245283 85.323215 91.2924528 88.8715084 90.5943396 88.7549973 91.7264151 85.2067039"></polygon>
                    <polygon id="Shape" fill="#FFFFFF" fill-rule="nonzero" points="94.610587 86.1711261 93.4540094 85.9934694 93.7463312 85.2067039 97 85.7142946 96.7203878 86.5137498 95.5511006 86.3234033 94.2801363 89.7877095 93.3396226 89.6354323"></polygon>
                    <path d="M99.5613582,90.6429244 C99.2099403,90.7242393 98.8477473,90.7242393 98.4963294,90.6429244 C98.0321205,90.6058569 97.6047458,90.3417523 97.3244947,89.918766 C97.0442435,89.4957797 96.938571,88.9553502 97.0347473,88.4369418 C97.1221507,87.5437441 97.6114636,86.7666897 98.326378,86.385765 C98.7978262,86.1415684 99.3230439,86.0651304 99.8332805,86.1664568 C100.129327,86.2062879 100.412818,86.3256737 100.660377,86.5147699 L100.320475,87.2500974 C100.115476,87.1007895 99.882699,87.0080251 99.6406689,86.9791872 C99.3183114,86.9104604 98.9849938,86.9744753 98.7002711,87.159794 C98.2960772,87.4431567 98.0224066,87.9152814 97.9524849,88.4498423 C97.8850035,88.7681014 97.9444285,89.1040472 98.1148523,89.3677495 C98.285276,89.6314518 98.5492947,89.7959809 98.8362322,89.8172935 C99.0871849,89.8696122 99.3443958,89.8696122 99.5953485,89.8172935 L99.5613582,90.6429244 Z" id="Shape" fill="#FFFFFF" fill-rule="nonzero"></path>
                    <path d="M101.292572,90.1347175 L100.645944,91.1707488 L99.745283,91.0209611 L102.308702,87.0391061 L103.40566,87.2263407 L103.244003,91.6201117 L102.35489,91.4578418 L102.435718,90.3344344 L101.292572,90.1347175 Z M102.505,89.6229431 L102.505,88.674288 C102.505,88.4371242 102.505,88.0876197 102.562734,87.8254913 L102.562734,87.8254913 C102.424171,88.0626551 102.262514,88.387195 102.123951,88.6118765 L101.592792,89.4731554 L102.505,89.6229431 Z" id="Shape" fill="#FFFFFF" fill-rule="nonzero"></path>
                    <path d="M105.637082,87.9857201 C105.985694,87.9451697 106.337069,87.9451697 106.685681,87.9857201 C107.036061,88.0335127 107.369982,88.1809756 107.656193,88.4143078 C107.902498,88.638072 108.022066,88.995155 107.968542,89.3471163 C107.889468,89.9409091 107.450704,90.3892422 106.919943,90.4185855 L106.919943,90.4185855 C107.131894,90.5698517 107.18767,90.8849897 107.176515,91.2757608 C107.14473,91.6951773 107.14473,92.1168964 107.176515,92.5363128 L106.328711,92.3850466 C106.30305,92.0368966 106.30305,91.6869384 106.328711,91.3387884 C106.328711,90.8093566 106.239469,90.6202738 105.904809,90.5572462 L105.659392,90.5572462 L105.135093,92.2211748 L104.320755,92.0699086 L105.637082,87.9857201 Z M105.871343,89.9269702 L106.217158,89.9269702 C106.402403,89.9877264 106.601685,89.9583064 106.7669,89.8458119 C106.932115,89.7333174 107.04825,89.5479701 107.087272,89.3345107 C107.087272,88.9815562 106.897632,88.7798679 106.574128,88.7294458 C106.467217,88.7068887 106.357535,88.7068887 106.250624,88.7294458 L105.871343,89.9269702 Z" id="Shape" fill="#FFFFFF" fill-rule="nonzero"></path>
                    <path d="M108.517482,87.9558576 C108.933173,87.9504367 109.348456,87.985076 109.758033,88.0593337 C110.324075,88.1068313 110.853747,88.3691542 111.246694,88.7966012 C111.578571,89.20892 111.711123,89.7569724 111.606454,90.2840709 C111.490136,91.0842389 111.034522,91.7873013 110.365903,92.1983796 C109.699703,92.5380497 108.940776,92.6249544 108.21975,92.4441354 C107.827875,92.3914291 107.441611,92.3004886 107.066038,92.1725106 L108.517482,87.9558576 Z M108.232156,91.6292608 C108.361437,91.6724646 108.494358,91.702781 108.629132,91.7198024 C109.068061,91.8048131 109.520761,91.6868121 109.869683,91.3964394 C110.235748,91.0674174 110.466669,90.604402 110.514769,90.1029876 C110.586206,89.7946356 110.519802,89.4691414 110.334183,89.2177986 C110.148565,88.9664558 109.863721,88.8163329 109.559545,88.8095358 L109.162569,88.8095358 L108.232156,91.6292608 Z" id="Shape" fill="#FFFFFF" fill-rule="nonzero"></path>
                    <path d="M136.892769,103.530726 C137.145815,104.460925 137.270713,105.422391 137.263885,106.387569 C137.263885,115.300446 132.972857,116.268467 119.670669,141.307158 C115.994302,148.283993 111.598897,157.007987 106.461261,168.352722 C105.62625,170.194323 104.756447,172.106755 103.875046,174.078212 C104.53138,171.182568 104.858256,168.219674 104.849226,165.247971 C104.849226,158.825978 102.796491,155.225412 98.8301887,152.675503 L98.8301887,152.675503 C105.672639,135.687914 120.969575,108.311806 136.892769,103.530726 Z" id="Shape" fill="#FFFFFF" fill-rule="nonzero"></path>
                    <path d="M105.235655,165.384156 C105.245283,168.310028 104.89675,171.227226 104.196931,174.078212 L104.196931,174.078212 L98.8301887,153.005587 C103.046915,155.51617 105.235655,159.061206 105.235655,165.384156 Z" id="Shape" fill="#FFFFFF" fill-rule="nonzero"></path>
                    <path d="M99.2242219,153.103159 L104.320755,174.555518 C102.223561,183.666558 97.0450147,190.541252 91.3392412,196.067039 C96.6232327,188.577054 100.091218,179.099206 100.091218,165.64563 C100.091218,158.475123 100.220096,156.25061 58.5339724,144.477252 C58.5339724,144.926888 58.4753916,145.364691 58.4753916,145.77883 C58.4664198,147.149928 58.6639471,148.514432 59.0612,149.825551 C55.5463497,147.56554 52.1603774,144.46542 52.1603774,140.584353 C52.1842228,139.146272 52.5887594,137.740846 53.3319941,136.513966 C57.9364479,138.714815 62.2714298,140.501526 66.3135076,141.992423 C70.3555854,143.483321 74.2922176,144.737568 77.8070678,145.77883 C87.3791766,148.606802 94.5377549,150.145029 99.2242219,153.103159 Z" id="Shape" fill="#FFFFFF" fill-rule="nonzero"></path>
                    <path d="M91.0033888,195.198547 C80.3045652,210.293262 62.1646103,217.340599 50.3173916,233.000042 C48.0272713,235.992684 46.0630142,239.223002 44.458233,242.635717 C43.9895003,243.647522 43.5793592,244.659326 43.2160914,245.694661 L41.1067943,246.9653 C38.7631309,248.400651 36.1733828,249.847767 33.5367614,251.247822 C30.677492,252.753764 27.6776028,254.212645 24.7831785,255.518579 C21.8887542,256.824513 19.1232313,257.871613 16.451455,258.824592 C14.8812005,259.36579 13.3578193,259.836397 11.9164662,260.201117 C11.8461563,258.765766 11.7992831,257.330416 11.7289732,255.90683 C11.5883534,253.236136 11.4711702,250.553677 11.131339,247.835923 C11.131339,247.706506 11.131339,247.565324 11.131339,247.424142 C10.006751,240.329711 9.34520911,233.169068 9.1509434,225.988 C9.1509434,189.363022 42.3020627,176.174266 59.8795384,151.620353 L59.8795384,151.620353 C59.3922841,150.850772 58.9988561,150.02522 58.7077067,149.161433 C58.3103809,147.857776 58.1128174,146.501039 58.1217908,145.137744 C58.1217908,144.725963 58.1217908,144.290652 58.1803824,143.843575 C99.8741549,155.608746 99.7452534,157.761773 99.7452534,164.891466 C99.7569717,178.315527 96.2883499,187.739429 91.0033888,195.198547 Z M83.4099193,163.256108 C79.9764524,162.161947 76.0508161,161.197203 72.3478279,159.926564 L72.3478279,159.926564 C69.6512736,165.515368 66.6305739,170.940583 63.301287,176.174266 C70.2306062,172.225762 76.9431954,167.905615 83.4099193,163.232577 L83.4099193,163.256108 Z" id="Shape" fill="#FFFFFF" fill-rule="nonzero"></path>
                    <path d="M63.1415094,176.826816 C57.4386415,180.162789 51.5503145,183.224735 45.754717,185.988827" id="Shape" stroke="#264056" stroke-width="1.25" stroke-linecap="round"></path>
                    <path d="M83.2735849,163.083799 C76.7993219,167.715358 70.078907,171.997158 63.1415094,175.910615" id="Shape" stroke="#264056" stroke-width="1.25" stroke-linecap="round"></path>
                    <path d="M72.2924528,160.335196 C69.5647787,166.007902 66.5092183,171.514562 63.1415094,176.826816 L63.1415094,176.826816" id="Shape" stroke="#264056" stroke-width="1.1" stroke-linecap="round"></path>
                    <path d="M60.3962264,152.089385 C42.6397181,176.744418 9.1509434,189.98749 9.1509434,226.763301 C9.34718777,233.973943 10.0154677,241.164075 11.15151,248.287723 C11.15151,248.429487 11.15151,248.57125 11.15151,248.7012 C11.4948025,251.430147 11.6131792,254.123653 11.7552313,256.805346 C11.8262573,258.234794 11.873608,259.676056 11.944634,261.117318" id="Shape" stroke="#264056" stroke-width="1.22" stroke-linecap="round"></path>
                    <path d="M43.8949643,245.541899 L43.8949643,245.541899 C44.2596747,244.50752 44.6714445,243.496649 45.1420386,242.485778 C46.7531925,239.076212 48.7252497,235.848875 51.0244643,232.858995 C62.9187291,217.214003 81.1307191,210.173169 91.8720285,195.092384 C97.1779764,187.651903 100.660372,178.236698 100.660372,164.872043 C100.660372,157.748929 100.789786,155.539118 58.9304445,143.843575 C58.9304445,144.290239 58.8716202,144.725149 58.8716202,145.13655 C58.8626111,146.498586 59.0609592,147.854072 59.4598628,149.156525 C59.7521683,150.019515 60.1471586,150.844305 60.6363479,151.613177 C63.0952019,155.715432 67.9423207,158.07805 73.2012092,159.841197 C76.9189023,161.110663 80.8601275,162.074516 84.307229,163.167668 C85.5660681,163.567314 86.7660829,163.978715 87.8366844,164.425379 C85.8121205,171.807393 82.7628668,178.869787 78.7777488,185.406829 C58.4833801,188.321899 34.3889644,199.19464 29.2830189,221.398539" id="Shape" stroke="#264056" stroke-width="1.25" stroke-linecap="round"></path>
                    <path d="M98.8301887,152.628282 C105.672639,135.687914 120.969575,108.311806 136.892769,103.530726 C137.145815,104.460925 137.270713,105.422391 137.263885,106.387569 C137.263885,115.300446 132.972857,116.268467 119.670669,141.307158 C115.982705,148.283993 111.5873,157.007987 106.449663,168.352722 C105.614652,170.194323 104.744849,172.106755 103.863449,174.078212" id="Shape" stroke="#1E3244" stroke-width="1.24" stroke-linecap="round"></path>
                    <path d="M91.1766841,196.067039 L91.2820386,195.960737 C96.9828911,190.444813 102.156971,183.582391 104.252356,174.487614 L104.252356,174.487614 C104.914841,171.590433 105.24478,168.625967 105.235665,165.652687 C105.235665,159.227286 103.163692,155.62481 99.1602188,153.073548 C94.4777937,150.120698 87.3370955,148.585216 77.7849484,145.762292 C74.2731296,144.722889 70.4335411,143.506315 66.301301,141.982644 C62.1690609,140.458974 57.9314662,138.710887 53.3309836,136.513966 C52.5883899,137.738656 52.1842022,139.141573 52.1603774,140.577088 C52.1603774,144.451226 55.4966052,147.545813 59.0552482,149.80179" id="Shape" stroke="#1E3244" stroke-width="1.25" stroke-linecap="round"></path>
                    <path d="M0,259.127384 C0,260.103524 0.717759503,260.69156 1.69438309,261.056142 C2.97568707,261.440634 4.31079203,261.615383 5.64794363,261.573614 C6.24933392,261.576264 6.85039131,261.544851 7.44822567,261.479528 C9.12948467,261.303273 10.7939,260.992579 12.425476,260.550431 C13.8727616,260.185849 15.402413,259.71542 16.9791305,259.174427 C19.6619038,258.268852 22.4858756,257.128063 25.3451471,255.869666 C28.2044185,254.611269 31.2284217,253.105897 34.1347593,251.600526 C36.7822329,250.201 39.3473406,248.754432 41.7359501,247.319625 L43.9009952,245.990664 C47.444873,243.869977 50.7643476,241.395396 53.8084297,238.604933 C54.9850846,237.428862 55.6557779,236.429201 55.6557779,235.723558 L55.2910149,234.547486 C65.5867454,265.736907 76.0707408,292.939446 87.8490566,322.52941 L29.0163104,338.994413 C14.1198591,307.028785 8.36063609e-15,262.83201 8.36063609e-15,259.20971 L0,259.127384 Z" id="Shape" stroke="#264056" stroke-width="1.25" fill="#FAC05C" fill-rule="nonzero" stroke-linecap="round"></path>
                </g>
            </g>
        </g>
    </g>
</svg>